<svg xmlns="http://www.w3.org/2000/svg" viewBox="0 0 170.483 170.483">
  <defs>
    <style>
      .cls-1 {
        fill: #fff;
      }
    </style>
  </defs>
  <path id="Path_18" data-name="Path 18" class="cls-1" d="M345.063,660.145V639.7l-18.556-6.815a67.193,67.193,0,0,0-6.989-17.556l.186-.024,8.832-18.394-14.417-14.456-18.374,8.752-.018.026a66.748,66.748,0,0,0-17.547-6.853l-6.811-18.74H250.924l-6.815,18.741a67.229,67.229,0,0,0-17.555,7.082l-.027-.142-18.392-8.81-14.456,14.427,8.752,18.378.029.022c-3.207,5.418-6.384,11.307-8,17.549L174.58,639.7v20.447l19.882,6.815a68.634,68.634,0,0,0,7.655,17.555l.142.026-8.665,18.391,14.5,14.459,18.414-8.752.037-.026a69.388,69.388,0,0,0,17.56,7.81l6.82,19.7H271.37l6.816-19.7a68.571,68.571,0,0,0,17.552-7.56l.029-.1,18.393,8.691,14.455-14.489-8.752-18.411-.026-.035c3.2-5.419,5.054-11.314,6.671-17.556ZM261.147,684a34.077,34.077,0,1,1,34.077-34.077A34.075,34.075,0,0,1,261.147,684Z" transform="translate(-174.58 -565.638)"/>
</svg>
