<svg xmlns="http://www.w3.org/2000/svg" viewBox="0 0 224.868 224.625">
  <defs>
    <style>
      .cls-1 {
        fill: #fff;
      }
    </style>
  </defs>
  <path id="Path_19" data-name="Path 19" class="cls-1" d="M1262.292,261.7l-10.636-25.676-27.532,1.377a91.814,91.814,0,0,0-18.26-18.264l.052-.059,1.443-27.652-25.666-10.645-18.55,20.56-.011.042a91.77,91.77,0,0,0-25.842-.034l-18.548-20.58-25.677,10.636,1.436,27.655a91.543,91.543,0,0,0-18.241,18.318l-.052-.029-27.651-1.422-10.614,25.658,20.554,18.531.052.029a100.842,100.842,0,0,0-.181,25.91l-20.7,18.593,10.632,25.681,27.782-1.478a92.138,92.138,0,0,0,18.366,18.216l.018.034-1.4,27.644,28.129,10.636L1142.2,384.82v-.045a81.739,81.739,0,0,0,23.4.054l17.323,20.569L1208,394.766l-1.75-27.66a91.333,91.333,0,0,0,18.1-18.313l-.031.015,27.61,1.425,10.618-25.673-20.579-18.542-.045-.026a92.073,92.073,0,0,0-.068-25.794Zm-94.35,74.173a46.318,46.318,0,1,1,25.074-60.52A46.315,46.315,0,0,1,1167.943,335.878Z" transform="translate(-1037.671 -180.774)"/>
</svg>
